<svg xmlns="http://www.w3.org/2000/svg" version="1.1" xmlns:xlink="http://www.w3.org/1999/xlink" xmlns:svgjs="http://svgjs.dev/svgjs" width="1980" height="1080" preserveAspectRatio="none" viewBox="0 0 1980 1080"><g mask="url(&quot;#SvgjsMask2063&quot;)" fill="none"><rect width="1980" height="1080" x="0" y="0" fill="rgba(4, 8, 33, 1)"></rect><path d="M -1424.3978459836912,75 C -1028.4,188 -236.4,650 555.6021540163088,640 C 1347.6,630 2250.72,-50.2 2535.6021540163088,25 C 2820.48,100.2 2091.12,817.8 1980,1016" stroke="rgba(255, 255, 255, 1)" stroke-width="2"></path><path d="M -1824.6702496481787,925 C -1428.67,801.6 -636.67,377.4 155.32975035182133,308 C 947.33,238.6 1770.4,580.4 2135.3297503518215,578 C 2500.26,575.6 2011.07,352.4 1980,296" stroke="rgba(25, 50, 127, 1)" stroke-width="2"></path><path d="M -1685.6448378817047,310 C -1289.64,413.2 -497.64,886.6 294.35516211829525,826 C 1086.36,765.4 1937.23,-35.4 2274.355162118295,7 C 2611.48,49.4 2038.87,831.8 1980,1038" stroke="rgba(25, 50, 127, 1)" stroke-width="2"></path><path d="M -792.3930944480376,609 C -396.39,526.2 395.61,111 1187.6069055519624,195 C 1979.61,279 3009.13,1012.6 3167.6069055519624,1029 C 3326.09,1045.4 2217.52,427.4 1980,277" stroke="rgba(35, 233, 252, 1)" stroke-width="2"></path><path d="M -1257.1914076423272,636 C -861.19,579.8 -69.19,352.6 722.8085923576726,355 C 1514.81,357.4 2451.37,651.8 2702.8085923576728,648 C 2954.25,644.2 2124.56,398.4 1980,336" stroke="rgba(2, 31, 160, 1)" stroke-width="2"></path><path d="M -1994.3859006979474,736 C -1598.39,637 -806.39,257.4 -14.3859006979473,241 C 777.61,224.6 1566.74,660.6 1965.6140993020526,654 C 2364.49,647.4 1977.12,297.2 1980,208" stroke="rgba(25, 50, 127, 1)" stroke-width="2"></path><path d="M -1237.4824089381636,560 C -841.48,474.2 -49.48,87.6 742.5175910618364,131 C 1534.52,174.4 2475.02,766.4 2722.5175910618364,777 C 2970.01,787.6 2128.5,302.6 1980,184" stroke="rgba(255, 255, 255, 1)" stroke-width="2"></path><path d="M -2910.231298846387,48 C -2514.23,234.6 -1722.23,914.8 -930.2312988463868,981 C -138.23,1047.2 467.72,406.6 1049.7687011536132,379 C 1631.81,351.4 1793.95,750.2 1980,843" stroke="rgba(25, 50, 127, 1)" stroke-width="2"></path><path d="M -2835.9883550238105,760 C -2439.99,665 -1647.99,306 -855.9883550238105,285 C -63.99,264 556.81,651 1124.0116449761895,655 C 1691.21,659 1808.8,375 1980,305" stroke="rgba(255, 255, 255, 1)" stroke-width="2"></path><path d="M -1761.5678364737803,1033 C -1365.57,872 -573.57,220.2 218.43216352621974,228 C 1010.43,235.8 1846.12,1085 2198.43216352622,1072 C 2550.75,1059 2023.69,344.8 1980,163" stroke="rgba(2, 31, 160, 1)" stroke-width="2"></path></g><defs><mask id="SvgjsMask2063"><rect width="1980" height="1080" fill="#ffffff"></rect></mask></defs></svg>